<!-- icon666.com - MILLIONS vector ICONS FREE --><svg xmlns="http://www.w3.org/2000/svg" viewBox="0 0 60 60"><g id="Icons"><path d="M58,14H16V8.293A8.22,8.22,0,0,0,8.25,0,8.074,8.074,0,0,0,2.431,2.258,7.935,7.935,0,0,0,0,8V52a8.009,8.009,0,0,0,8,8H51a1,1,0,0,0,.707-.293l8-8A1,1,0,0,0,60,51V16A2,2,0,0,0,58,14ZM2,8A6,6,0,0,1,8.188,2,6.2,6.2,0,0,1,14,8.293l0,38.625-.117-.033A7.226,7.226,0,0,0,8,44a7.984,7.984,0,0,0-6,2.714ZM2,52a6.006,6.006,0,0,1,6-6,5.222,5.222,0,0,1,4.3,2.113,2.067,2.067,0,0,0,2.327.706A2.019,2.019,0,0,0,16,46.88V16H58V50H52.666A2.669,2.669,0,0,0,50,52.666V58H8A6.006,6.006,0,0,1,2,52Zm54.586,0L52,56.586v-3.92A.667.667,0,0,1,52.666,52Z"></path><path d="M42,30V27a6.006,6.006,0,0,0-6-6H28a6.006,6.006,0,0,0-6,6v3a4,4,0,0,0-4,4V46a2,2,0,0,0,2,2h4a1.993,1.993,0,0,0,1.722-1H38.278A1.993,1.993,0,0,0,40,48h4a2,2,0,0,0,2-2V34A4,4,0,0,0,42,30ZM20,46V34a2,2,0,0,1,4,0l0,12ZM32,35a24.645,24.645,0,0,1,6,.755V38H26V35.754A24.536,24.536,0,0,1,32,35Zm-6,5H38v5H26Zm12.03-6.3a26.322,26.322,0,0,0-12.06,0A3.98,3.98,0,0,0,24,30.556V27a4,4,0,0,1,4-4h8a4,4,0,0,1,4,4v3.556A3.98,3.98,0,0,0,38.03,33.7ZM40,46V34a2,2,0,0,1,4,0l0,12Z"></path><path d="M50,46a1,1,0,0,0,0,2h4a1,1,0,0,0,0-2H53V39h1a2,2,0,0,0,1.973-2.328l-.667-4A1.994,1.994,0,0,0,53.333,31H50.667a1.994,1.994,0,0,0-1.973,1.672l-.667,4A2,2,0,0,0,50,39h1v7Zm.667-13h2.666L54,37H50Z"></path></g></svg>