<?xml version="1.0" standalone="no"?>
<!DOCTYPE svg PUBLIC "-//W3C//DTD SVG 20010904//EN"
 "http://www.w3.org/TR/2001/REC-SVG-20010904/DTD/svg10.dtd">
<svg version="1.0" xmlns="http://www.w3.org/2000/svg"
 width="22.000000pt" height="23.000000pt" viewBox="0 0 22.000000 23.000000"
 preserveAspectRatio="xMidYMid meet">

<g transform="translate(0.000000,23.000000) scale(0.100000,-0.100000)"
fill="#000000" stroke="none">
<path d="M157 165 l-48 -53 -49 52 -50 51 0 -102 c0 -96 1 -103 20 -103 18 0
20 7 20 55 l0 55 30 -32 30 -33 30 35 29 35 1 -57 c0 -51 2 -58 20 -58 19 0
20 7 20 105 0 58 -1 105 -2 104 -2 -1 -25 -25 -51 -54z"/>
</g>
</svg>
